<?xml version="1.0" encoding="utf-8"?>
<!-- Generator: Adobe Illustrator 24.0.3, SVG Export Plug-In . SVG Version: 6.00 Build 0)  -->
<svg version="1.1" id="Layer_1" xmlns="http://www.w3.org/2000/svg" xmlns:xlink="http://www.w3.org/1999/xlink" x="0px" y="0px"
	 width="100px" height="100px" viewBox="0 0 100 100" style="enable-background:new 0 0 100 100;" xml:space="preserve">
<style type="text/css">
	.st0{fill-rule:evenodd;clip-rule:evenodd;fill:#FFFFFF;}
	.st1{fill-rule:evenodd;clip-rule:evenodd;fill:#15635D;}
</style>
<circle class="st0" cx="50" cy="50" r="50"/>
<path class="st1" d="M81.8,49.2l-0.2,4.2H35.4c0.4,5,2,8.8,5,11.4c3,2.6,6.6,3.9,11,3.9c3.2,0,5.9-0.7,8.2-2.2s4.1-3.5,5.3-6.3
	l16,2.4c-2.1,6.3-5.7,11.1-10.9,14.6c-5.2,3.5-11.4,5.2-18.5,5.2c-10.2,0-18.3-2.9-24.3-8.6c-6-5.7-9-13.7-9-23.8
	c0-10.1,3-18,9-23.8s13.9-8.7,23.7-8.7c9.3,0,16.8,2.7,22.4,8S81.8,38.7,81.8,49.2z M51.1,29.9c-8.5,0-13.6,4-15.2,12h28.7
	c-0.4-3.9-1.9-6.9-4.3-8.9C57.8,30.9,54.7,29.9,51.1,29.9z"/>
</svg>
