<?xml version="1.0" encoding="utf-8"?>
<!-- Generator: Adobe Illustrator 24.0.3, SVG Export Plug-In . SVG Version: 6.00 Build 0)  -->
<svg version="1.1" id="Layer_1" xmlns="http://www.w3.org/2000/svg" xmlns:xlink="http://www.w3.org/1999/xlink" x="0px" y="0px"
	 width="62px" height="28px" viewBox="0 0 62 28" style="enable-background:new 0 0 62 28;" xml:space="preserve">
<style type="text/css">
	.st0{fill-rule:evenodd;clip-rule:evenodd;fill:#FFFFFF;}
	.st1{fill:#01D0B3;}
</style>
<path class="st0" d="M19.7,27l-1.8-5.1H7.6L5.8,27H0.5L9.6,2.3h6.3L25,27H19.7z M9.1,17.6h7.4L12.7,7.1L9.1,17.6z M38.2,9.4h5.2
	L35.9,27h-4.3L24.2,9.4h5.2l4.4,12L38.2,9.4z M62,18l-0.1,1.2h-13c0.1,1.4,0.6,2.5,1.4,3.2s1.9,1.1,3.1,1.1c0.9,0,1.7-0.2,2.3-0.6
	s1.1-1,1.5-1.8l4.5,0.7c-0.6,1.8-1.6,3.1-3.1,4.1s-3.2,1.5-5.2,1.5c-2.9,0-5.2-0.8-6.8-2.4S44,21.1,44,18.2c0-2.8,0.8-5.1,2.5-6.7
	s3.9-2.5,6.7-2.5c2.6,0,4.7,0.7,6.3,2.2S62,15,62,18z M53.3,12.5c-2.4,0-3.8,1.1-4.3,3.4h8.1c-0.1-1.1-0.5-1.9-1.2-2.5
	S54.3,12.5,53.3,12.5z"/>
<circle class="st1" cx="49.5" cy="2.5" r="2.5"/>
<circle class="st1" cx="56.5" cy="2.5" r="2.5"/>
</svg>
